Fungal-Grow 100 Thickness 1000.ufo
<glyph name="six" format="1">
  <advance width="1303"/>
  <unicode hex="0036"/>
  <outline>
    <contour>
      <point x="676" y="827" type="qcurve" smooth="yes"/>
      <point x="540" y="827"/>
      <point x="381" y="641"/>
      <point x="381" y="479" type="qcurve" smooth="yes"/>
      <point x="381" y="318"/>
      <point x="540" y="131"/>
      <point x="676" y="131" type="qcurve" smooth="yes"/>
      <point x="812" y="131"/>
      <point x="971" y="318"/>
      <point x="971" y="479" type="qcurve" smooth="yes"/>
      <point x="971" y="641"/>
      <point x="812" y="827"/>
    </contour>
    <contour>
      <point x="1077" y="1460" type="qcurve"/>
      <point x="1077" y="1276" type="line"/>
      <point x="1001" y="1312"/>
      <point x="846" y="1350"/>
      <point x="770" y="1350" type="qcurve" smooth="yes"/>
      <point x="570" y="1350"/>
      <point x="359" y="1080"/>
      <point x="344" y="807" type="qcurve"/>
      <point x="403" y="894"/>
      <point x="581" y="987"/>
      <point x="688" y="987" type="qcurve" smooth="yes"/>
      <point x="913" y="987"/>
      <point x="1174" y="714"/>
      <point x="1174" y="479" type="qcurve" smooth="yes"/>
      <point x="1174" y="249"/>
      <point x="902" y="-29"/>
      <point x="676" y="-29" type="qcurve" smooth="yes"/>
      <point x="417" y="-29"/>
      <point x="143" y="368"/>
      <point x="143" y="745" type="qcurve" smooth="yes"/>
      <point x="143" y="1099"/>
      <point x="479" y="1520"/>
      <point x="762" y="1520" type="qcurve" smooth="yes"/>
      <point x="838" y="1520"/>
      <point x="993" y="1490"/>
    </contour>
    <component base="blob1" xScale="0" xyScale="-1.2886" yScale="0" yxScale="1.2886" xOffset="1347" yOffset="1347"/>
    <component base="blob2" xScale="0" xyScale="-1" yScale="0" yxScale="1" xOffset="1777" yOffset="972"/>
    <component base="blob3" xScale="0" xyScale="-1" yScale="0" yxScale="1" xOffset="2030" yOffset="566"/>
    <component base="blob4" xScale="0" xyScale="-0.8783" yScale="0" yxScale="0.8783" xOffset="1991" yOffset="147"/>
    <component base="blob5" xScale="0" xyScale="-1" yScale="0" yxScale="1" xOffset="1779" yOffset="-251"/>
    <component base="blob6" xScale="0" xyScale="-1.1539" yScale="0" yxScale="1.1539" xOffset="1367" yOffset="-604"/>
    <component base="blob7" xScale="0" xyScale="-0.9753" yScale="0" yxScale="0.9753" xOffset="978" yOffset="-904"/>
    <component base="blob8" xScale="0" xyScale="-0.7047" yScale="0" yxScale="0.7047" xOffset="605" yOffset="-870"/>
    <component base="blob9" xScale="0" xyScale="-0.4869" yScale="0" yxScale="0.4869" xOffset="354" yOffset="-938"/>
    <component base="blob2" xScale="0" xyScale="-1" yScale="0" yxScale="1" xOffset="817" yOffset="1507"/>
    <component base="blob3" xScale="0" xyScale="-1" yScale="0" yxScale="1" xOffset="392" yOffset="1337"/>
    <component base="blob4" xScale="0" xyScale="-0.8783" yScale="0" yxScale="0.8783" xOffset="212" yOffset="913"/>
    <component base="blob4" xScale="0" xyScale="-0.8783" yScale="0" yxScale="0.8783" xOffset="202" yOffset="496"/>
    <component base="blob5" xScale="0" xyScale="-1" yScale="0" yxScale="1" xOffset="490" yOffset="138"/>
    <component base="blob6" xScale="0" xyScale="-1.0228" yScale="0" yxScale="1.0228" xOffset="914" yOffset="185"/>
    <component base="blob7" xScale="0" xyScale="-0.9753" yScale="0" yxScale="0.9753" xOffset="1081" yOffset="591"/>
    <component base="blob8" xScale="0" xyScale="-0.7047" yScale="0" yxScale="0.7047" xOffset="753" yOffset="681"/>
    <component base="blob9" xScale="0" xyScale="-0.4869" yScale="0" yxScale="0.4869" xOffset="516" yOffset="595"/>
    <contour>
      <point x="651" y="1520" type="move" name="above"/>
    </contour>
    <contour>
      <point x="651" y="0" type="move" name="below"/>
    </contour>
  </outline>
</glyph>
<glyph name="colon" format="1">
  <advance width="690"/>
  <unicode hex="003A"/>
  <outline>
    <contour>
      <point x="240" y="254" type="line"/>
      <point x="451" y="254" type="line"/>
      <point x="451" y="0" type="line"/>
      <point x="240" y="0" type="line"/>
    </contour>
    <contour>
      <point x="240" y="1059" type="line"/>
      <point x="451" y="1059" type="line"/>
      <point x="451" y="805" type="line"/>
      <point x="240" y="805" type="line"/>
    </contour>
    <component base="blob2" xScale="1.3325" yScale="1.3325" xOffset="1155" yOffset="2322"/>
    <component base="blob3" xScale="1.1474" yScale="1.1474" xOffset="1703" yOffset="3307"/>
    <component base="blob4" xScale="1.4867" yScale="1.4867" xOffset="2363" yOffset="4193"/>
    <component base="blob5" xScale="1.3417" yScale="1.3417" xOffset="3389" yOffset="4653"/>
    <component base="blob8" xScale="1.0328" yScale="1.0328" xOffset="4451" yOffset="7760"/>
    <component base="blob1" xScale="1.2766" yScale="1.2766" xOffset="872" yOffset="1773"/>
    <component base="blob2" xScale="1.2687" yScale="1.2687" xOffset="523" yOffset="1241"/>
    <component base="blob2" xScale="1.0617" yScale="1.0617" xOffset="417" yOffset="755"/>
    <component base="blob3" xScale="0.8862" yScale="0.8862" xOffset="329" yOffset="326"/>
    <component base="blob5" xScale="1.476" yScale="1.476" xOffset="3794" yOffset="5165"/>
    <component base="blob6" xScale="1.2029" yScale="1.2029" xOffset="3728" yOffset="6336"/>
    <component base="blob7" xScale="1.4452" yScale="1.4452" xOffset="3541" yOffset="6918"/>
    <component base="blob8" xScale="1.3703" yScale="1.3703" xOffset="3962" yOffset="7425"/>
    <component base="blob9" xScale="0.8011" yScale="0.8011" xOffset="4769" yOffset="7962"/>
    <component base="blob9" xScale="0.5587" yScale="0.5587" xOffset="5030" yOffset="8174"/>
    <component base="blob2" xScale="1.398" yScale="1.398" xOffset="1515" yOffset="2766"/>
    <component base="blob4" xScale="1.0077" yScale="1.0077" xOffset="1970" yOffset="3723"/>
    <component base="blob4" xScale="1.2111" yScale="1.2111" xOffset="2875" yOffset="4333"/>
    <component base="blob6" xScale="1.3211" yScale="1.3211" xOffset="3980" yOffset="5774"/>
    <component base="blob3" xScale="0.8567" yScale="0.8567" xOffset="475" yOffset="-14"/>
    <component base="blob4" xScale="0.527" yScale="0.527" xOffset="711" yOffset="-167"/>
  </outline>
</glyph>
<glyph name="R" format="1">
  <advance width="1423"/>
  <unicode hex="0052"/>
  <outline>
    <contour>
      <point x="909" y="700" type="curve"/>
      <point x="909" y="700" type="line"/>
      <point x="995.667" y="670.667"/>
      <point x="1076.333" y="576"/>
      <point x="1159" y="408" type="curve" smooth="yes"/>
      <point x="1364" y="0" type="line"/>
      <point x="1147" y="0" type="line"/>
      <point x="956" y="383" type="line" smooth="yes"/>
      <point x="857.333" y="583"/>
      <point x="783" y="631"/>
      <point x="623" y="631" type="curve" smooth="yes"/>
      <point x="403" y="631" type="line"/>
      <point x="403" y="0" type="line"/>
      <point x="201" y="0" type="line"/>
      <point x="201" y="1493" type="line"/>
      <point x="657" y="1493" type="line" smooth="yes"/>
      <point x="998.333" y="1493"/>
      <point x="1165" y="1351"/>
      <point x="1165" y="1063" type="curve" smooth="yes"/>
      <point x="1165" y="875"/>
      <point x="1075.667" y="748"/>
    </contour>
    <contour>
      <point x="403" y="1327" type="line"/>
      <point x="403" y="797" type="line"/>
      <point x="657" y="797" type="line" smooth="yes"/>
      <point x="851.667" y="797"/>
      <point x="952" y="888.333"/>
      <point x="952" y="1063" type="curve" smooth="yes"/>
      <point x="952" y="1237.667"/>
      <point x="851.667" y="1327"/>
      <point x="657" y="1327" type="curve" smooth="yes"/>
      <point x="403" y="1327" type="line"/>
    </contour>
    <component base="blob1" xScale="0" xyScale="1.2886" yScale="0" yxScale="1.2886" xOffset="908" yOffset="440"/>
    <component base="blob2" xScale="0" xyScale="1" yScale="0" yxScale="1" xOffset="1323" yOffset="238"/>
    <component base="blob3" xScale="0" xyScale="1" yScale="0" yxScale="1" xOffset="1656" yOffset="-83"/>
    <component base="blob4" xScale="0" xyScale="0.8783" yScale="0" yxScale="0.8783" xOffset="1854" yOffset="-443"/>
    <component base="blob5" xScale="0" xyScale="1" yScale="0" yxScale="1" xOffset="2241" yOffset="-712"/>
    <component base="blob6" xScale="0" xyScale="1.1539" yScale="0" yxScale="1.1539" xOffset="2767" yOffset="-644"/>
    <component base="blob7" xScale="0" xyScale="0.9753" yScale="0" yxScale="0.9753" xOffset="3026" yOffset="-232"/>
    <component base="blob8" xScale="0" xyScale="0.7047" yScale="0" yxScale="0.7047" xOffset="3071" yOffset="157"/>
    <component base="blob9" xScale="0" xyScale="0.4869" yScale="0" yxScale="0.4869" xOffset="3242" yOffset="371"/>
    <contour>
      <point x="637" y="1520" type="move" name="above"/>
    </contour>
    <contour>
      <point x="637" y="0" type="move" name="below"/>
    </contour>
    <contour>
      <point x="0" y="1520" type="move" name="half"/>
    </contour>
  </outline>
</glyph>
<glyph name="uni0311" format="1">
  <advance width="0"/>
  <unicode hex="0311"/>
  <outline>
    <contour>
      <point x="-207" y="1321" type="qcurve"/>
      <point x="-325" y="1321" type="line"/>
      <point x="-336" y="1396"/>
      <point x="-433" y="1471"/>
      <point x="-520" y="1471" type="qcurve" smooth="yes"/>
      <point x="-606" y="1471"/>
      <point x="-702" y="1397"/>
      <point x="-715" y="1321" type="qcurve"/>
      <point x="-833" y="1321" type="line"/>
      <point x="-823" y="1464"/>
      <point x="-665" y="1608"/>
      <point x="-375" y="1608"/>
      <point x="-217" y="1464"/>
    </contour>
    <contour>
      <point x="-512" y="1147" type="move" name="_above"/>
    </contour>
    <contour>
      <point x="-512" y="1282" type="move" name="_above-mark"/>
    </contour>
    <contour>
      <point x="-512" y="1604" type="move" name="above-mark"/>
    </contour>
  </outline>
</glyph>
<glyph name="uni0331" format="1">
  <advance width="0"/>
  <unicode hex="0331"/>
  <outline>
    <component base="uni02CD" xOffset="-1020"/>
    <contour>
      <point x="-512" y="-1" type="move" name="_Ligature below"/>
    </contour>
    <contour>
      <point x="-512" y="-1" type="move" name="_below"/>
    </contour>
    <contour>
      <point x="-512" y="0" type="move" name="_below-mark"/>
    </contour>
    <contour>
      <point x="-512" y="-321" type="move" name="below-mark"/>
    </contour>
  </outline>
</glyph>
<glyph name="uni0361" format="1">
  <advance width="0"/>
  <unicode hex="0361"/>
  <outline>
    <component base="uni2040" xOffset="-823"/>
    <contour>
      <point x="0" y="1902" type="move" name="above-mark"/>
    </contour>
  </outline>
</glyph>
<glyph name="uni03F2" format="1">
  <advance width="1126"/>
  <unicode hex="03F2"/>
  <outline>
    <component base="c"/>
    <contour>
      <point x="678" y="1147" type="move" name="above"/>
    </contour>
  </outline>
</glyph>
<glyph name="uni0473" format="1">
  <advance width="1253"/>
  <unicode hex="0473"/>
  <outline>
    <component base="uni0275"/>
    <contour>
      <point x="637" y="1147" type="move" name="above"/>
    </contour>
    <contour>
      <point x="637" y="0" type="move" name="below"/>
    </contour>
  </outline>
</glyph>
<glyph name="uni067B" format="1">
  <advance width="1928"/>
  <unicode hex="067B"/>
  <outline>
    <component base="uni066E"/>
    <component base="arabic_2dots_a" xOffset="825" yOffset="-250"/>
    <contour>
      <point x="900" y="1000" type="move" name="rtl-above"/>
    </contour>
    <contour>
      <point x="900" y="-600" type="move" name="rtl-below"/>
    </contour>
  </outline>
</glyph>
<glyph name="uni069E" format="1">
  <advance width="2476"/>
  <unicode hex="069E"/>
  <outline>
    <component base="uni0635"/>
    <component base="arabic_3dots" xOffset="1150" yOffset="800"/>
    <contour>
      <point x="600" y="800" type="move" name="rtl-above"/>
    </contour>
    <contour>
      <point x="600" y="-600" type="move" name="rtl-below"/>
    </contour>
  </outline>
</glyph>
<glyph name="uni069F" format="1">
  <advance width="1894"/>
  <unicode hex="069F"/>
  <outline>
    <component base="uni0637"/>
    <component base="arabic_3dots" xOffset="900" yOffset="850"/>
    <contour>
      <point x="603" y="1650" type="move" name="rtl-above"/>
    </contour>
    <contour>
      <point x="603" y="-150" type="move" name="rtl-below"/>
    </contour>
  </outline>
</glyph>
<glyph name="uni06BD" format="1">
  <advance width="1504"/>
  <unicode hex="06BD"/>
  <outline>
    <component base="uni06BA"/>
    <component base="arabic_3dots" xOffset="500" yOffset="800"/>
    <contour>
      <point x="700" y="1250" type="move" name="rtl-above"/>
    </contour>
    <contour>
      <point x="750" y="-450" type="move" name="rtl-below"/>
    </contour>
  </outline>
</glyph>
<glyph name="uni1D07" format="1">
  <advance width="1005"/>
  <unicode hex="1D07"/>
  <outline>
    <contour>
      <point x="186" y="1120" type="line"/>
      <point x="894" y="1120" type="line"/>
      <point x="894" y="972" type="line"/>
      <point x="372" y="972" type="line"/>
      <point x="372" y="671" type="line"/>
      <point x="871" y="671" type="line"/>
      <point x="871" y="523" type="line"/>
      <point x="372" y="523" type="line"/>
      <point x="372" y="147" type="line"/>
      <point x="907" y="147" type="line"/>
      <point x="907" y="0" type="line"/>
      <point x="186" y="0" type="line"/>
    </contour>
    <contour>
      <point x="537" y="1147" type="move" name="above"/>
    </contour>
    <contour>
      <point x="537" y="0" type="move" name="below"/>
    </contour>
  </outline>
</glyph>
<glyph name="uni2D49" format="1">
  <advance width="1294"/>
  <unicode hex="2D49"/>
  <outline>
    <component base="Sigma"/>
    <contour>
      <point x="670" y="1520" type="move" name="above"/>
    </contour>
  </outline>
</glyph>
<glyph name="uniFB69" format="1">
  <advance width="618"/>
  <unicode hex="FB69"/>
  <outline>
    <component base="uni066E.medi"/>
    <component base="uni0615" xOffset="-213" yOffset="-400"/>
    <contour>
      <point x="299" y="1450" type="move" name="rtl-above"/>
    </contour>
    <contour>
      <point x="299" y="-100" type="move" name="rtl-below"/>
    </contour>
  </outline>
</glyph>
<glyph name="uniFB6B" format="1">
  <advance width="2120"/>
  <unicode hex="FB6B"/>
  <outline>
    <component base="uni06A1.fina"/>
    <component base="arabic_3dots" xOffset="1400" yOffset="950"/>
    <contour>
      <point x="700" y="1100" type="move" name="rtl-above"/>
    </contour>
    <contour>
      <point x="800" y="-200" type="move" name="rtl-below"/>
    </contour>
  </outline>
</glyph>
<glyph name="uniFEAF" format="1">
  <advance width="989"/>
  <unicode hex="FEAF"/>
  <outline>
    <component base="arabic_dot" xOffset="625" yOffset="800"/>
    <component base="uni0631"/>
    <contour>
      <point x="700" y="1000" type="move" name="rtl-above"/>
    </contour>
    <contour>
      <point x="500" y="-500" type="move" name="rtl-below"/>
    </contour>
  </outline>
</glyph>
<glyph name="uniFED9" format="1">
  <advance width="1688"/>
  <unicode hex="FED9"/>
  <outline>
    <component base="uni0643"/>
    <contour>
      <point x="700" y="1500" type="move" name="rtl-above"/>
    </contour>
    <contour>
      <point x="800" y="-200" type="move" name="rtl-below"/>
    </contour>
  </outline>
</glyph>
<glyph name="uniFEF7" format="1">
  <advance width="1168"/>
  <unicode hex="FEF7"/>
  <outline>
    <component base="uniFEFB"/>
    <component base="uni0654" xOffset="-362" yOffset="300"/>
    <contour>
      <point x="150" y="2020" type="move" name="Ligature rtl-above"/>
    </contour>
    <contour>
      <point x="200" y="-150" type="move" name="Ligature rtl-below"/>
    </contour>
  </outline>
</glyph>
<glyph name="uni069F.fina" format="1">
  <advance width="1944"/>
  <outline>
    <component base="uniFEC2"/>
    <component base="arabic_3dots" xOffset="900" yOffset="850"/>
    <contour>
      <point x="603" y="1650" type="move" name="rtl-above"/>
    </contour>
    <contour>
      <point x="603" y="-150" type="move" name="rtl-below"/>
    </contour>
  </outline>
</glyph>
<glyph name="uni06BF.medi" format="1">
  <advance width="1322"/>
  <outline>
    <component base="uniFEA4"/>
    <component base="arabic_3dots_a" xOffset="412" yOffset="-200"/>
    <component base="arabic_dot" xOffset="525" yOffset="950"/>
    <contour>
      <point x="600" y="1150" type="move" name="rtl-above"/>
    </contour>
    <contour>
      <point x="600" y="-500" type="move" name="rtl-below"/>
    </contour>
  </outline>
</glyph>
<glyph name="uni07DA.init" format="1">
  <advance width="1604"/>
  <outline>
    <contour>
      <point x="1212" y="0" type="line"/>
      <point x="-20" y="0" type="line"/>
      <point x="-20" y="147" type="line"/>
      <point x="392" y="147" type="line" smooth="yes"/>
      <point x="392" y="897" type="line"/>
      <point x="61" y="897" type="line"/>
      <point x="61" y="1044" type="line"/>
      <point x="392" y="1044" type="line"/>
      <point x="392" y="1493" type="line"/>
      <point x="577" y="1493" type="line"/>
      <point x="577" y="1044" type="line"/>
      <point x="1028" y="1044" type="line"/>
      <point x="1028" y="1493" type="line"/>
      <point x="1212" y="1493" type="line"/>
      <point x="1212" y="1044" type="line"/>
      <point x="1544" y="1044" type="line"/>
      <point x="1544" y="897" type="line"/>
      <point x="1212" y="897" type="line"/>
    </contour>
    <contour>
      <point x="1028" y="147" type="line"/>
      <point x="1028" y="897" type="line"/>
      <point x="577" y="897" type="line"/>
      <point x="577" y="147" type="line"/>
    </contour>
    <contour>
      <point x="803" y="1520" type="move" name="rtl-above"/>
    </contour>
    <contour>
      <point x="803" y="0" type="move" name="rtl-below"/>
    </contour>
  </outline>
</glyph>
